<svg width="51" height="116" viewBox="0 0 51 116" fill="none" xmlns="http://www.w3.org/2000/svg">
<path fill-rule="evenodd" clip-rule="evenodd" d="M-8.99262 0C3.04236 0 12.7984 9.75007 12.7984 21.7774C12.7984 33.8047 3.04236 43.5546 -8.99262 43.5546C-21.0276 43.5546 -30.7836 33.8047 -30.7836 21.7774C-30.7836 9.75007 -21.0276 0 -8.99262 0ZM-45.397 111.839C-55.1335 104.77 -57.2918 91.151 -50.2179 81.4206C-43.144 71.6903 -29.5167 69.5334 -19.7802 76.603C-10.0437 83.6722 -7.88549 97.2912 -14.9591 107.022C-22.0332 116.752 -35.6607 118.909 -45.397 111.839ZM32.3032 81.4206C39.3773 91.151 37.219 104.77 27.4826 111.839C17.7461 118.909 4.11852 116.752 -2.95509 107.022C-10.0292 97.2912 -7.87092 83.6722 1.86555 76.603C11.602 69.5334 25.2296 71.6903 32.3032 81.4206ZM-67.9276 42.6858C-64.2086 31.2473 -51.9151 24.9873 -40.4693 28.704C-29.0234 32.4206 -22.7596 44.7066 -26.4785 56.1451C-30.1975 67.5835 -42.4911 73.8435 -53.9369 70.1269C-65.3827 66.4102 -71.6466 54.1247 -67.9276 42.6858ZM22.4693 28.704C33.9154 24.9873 46.2086 31.2473 49.9276 42.6858C53.6466 54.1247 47.3827 66.4102 35.937 70.1269C24.4909 73.8435 12.1977 67.5835 8.47873 56.1451C4.75975 44.7066 11.0236 32.4206 22.4693 28.704Z" fill="#FFA500"/>
</svg>
