<svg width="154" height="152" viewBox="0 0 154 152" fill="none" xmlns="http://www.w3.org/2000/svg">
<path d="M130.424 -112.823C130.927 -117.059 137.073 -117.059 137.576 -112.823L141.792 -77.2914C147.236 -31.41 183.41 4.76402 229.291 10.208L264.823 14.424C269.059 14.927 269.059 21.073 264.823 21.576L229.291 25.792C183.41 31.236 147.236 67.41 141.792 113.291L137.576 148.823C137.073 153.059 130.927 153.059 130.424 148.823L126.208 113.291C120.764 67.41 84.59 31.236 38.7086 25.792L3.17662 21.576C-1.05888 21.073 -1.05888 14.927 3.17662 14.424L38.7086 10.208C84.59 4.76402 120.764 -31.41 126.208 -77.2914L130.424 -112.823Z" fill="#FFA500"/>
</svg>
