<svg width="20" height="116" viewBox="0 0 20 116" fill="none" xmlns="http://www.w3.org/2000/svg">
<path fill-rule="evenodd" clip-rule="evenodd" d="M-39.9926 0C-27.9576 0 -18.2016 9.75007 -18.2016 21.7774C-18.2016 33.8047 -27.9576 43.5546 -39.9926 43.5546C-52.0276 43.5546 -61.7836 33.8047 -61.7836 21.7774C-61.7836 9.75007 -52.0276 0 -39.9926 0ZM-76.397 111.839C-86.1335 104.77 -88.2918 91.151 -81.2179 81.4206C-74.144 71.6903 -60.5167 69.5334 -50.7802 76.603C-41.0437 83.6722 -38.8855 97.2912 -45.9591 107.022C-53.0332 116.752 -66.6607 118.909 -76.397 111.839ZM1.30322 81.4206C8.37728 91.151 6.21903 104.77 -3.51743 111.839C-13.2539 118.909 -26.8815 116.752 -33.9551 107.022C-41.0292 97.2912 -38.8709 83.6722 -29.1345 76.603C-19.398 69.5334 -5.7704 71.6903 1.30322 81.4206ZM-98.9276 42.6858C-95.2086 31.2473 -82.9151 24.9873 -71.4693 28.704C-60.0234 32.4206 -53.7596 44.7066 -57.4785 56.1451C-61.1975 67.5835 -73.4911 73.8435 -84.9369 70.1269C-96.3827 66.4102 -102.647 54.1247 -98.9276 42.6858ZM-8.53072 28.704C2.91541 24.9873 15.2086 31.2473 18.9276 42.6858C22.6466 54.1247 16.3827 66.4102 4.93703 70.1269C-6.50909 73.8435 -18.8023 67.5835 -22.5213 56.1451C-26.2402 44.7066 -19.9764 32.4206 -8.53072 28.704Z" fill="#FFA500"/>
</svg>
