<svg width="115" height="218" viewBox="0 0 115 218" fill="none" xmlns="http://www.w3.org/2000/svg">
<path d="M59.4947 141.815C44.1195 145.304 29.2572 158.056 23.4664 172.719C19.4668 182.848 13.0755 192.192 4.34674 199.858C-25.2227 225.827 -70.417 222.715 -96.5968 192.906C-122.777 163.096 -120.029 117.879 -90.4597 91.9096C-81.286 83.8528 -70.6087 78.5952 -59.4616 76.0652C-44.0864 72.5758 -29.2245 59.8233 -23.4345 45.1607C-19.4342 35.0313 -13.0426 25.688 -4.31398 18.022C25.2559 -7.94795 70.4498 -4.83533 96.6296 24.9735C122.81 54.783 120.062 100 90.4922 125.97C81.3188 134.027 70.6418 139.285 59.4947 141.815Z" fill="#FF5733"/>
</svg>
