<svg width="25" height="82" viewBox="0 0 25 82" fill="none" xmlns="http://www.w3.org/2000/svg">
<path d="M18.94 13.6527C18.0347 13.4393 17.0965 13.3062 16.1329 13.2613C7.84987 12.8758 0.828075 19.1592 0.449304 27.2961C0.217556 32.2745 2.52645 36.7933 6.25115 39.6392C3.94387 42.0977 2.47233 45.3386 2.30454 48.943C1.92941 57.0017 8.21102 63.8556 16.3784 64.361L16.3783 64.3628C15.9574 73.4036 23.077 81.0797 32.2806 81.5081C41.4841 81.9365 49.286 74.955 49.7068 65.9143L51.9493 17.7409C52.3702 8.70039 45.2506 1.02417 36.0471 0.595742C27.7252 0.208358 20.5497 5.87917 18.94 13.6527Z" fill="#FF5733"/>
</svg>
