<svg width="54" height="117" viewBox="0 0 54 117" fill="none" xmlns="http://www.w3.org/2000/svg">
<path d="M27.1332 19.0856C25.8304 18.7786 24.4804 18.587 23.0937 18.5225C11.1742 17.9676 1.06968 27.0098 0.524615 38.7188C0.191124 45.8829 3.51368 52.3857 8.87363 56.4809C5.55339 60.0188 3.43581 64.6825 3.19435 69.8695C2.65453 81.466 11.6939 91.3291 23.447 92.0563L23.4469 92.0589C22.8412 105.069 33.0866 116.115 46.3307 116.731C59.5748 117.348 70.8019 107.301 71.4075 94.2915L74.6345 24.9687C75.2401 11.9592 64.9948 0.912888 51.7507 0.296371C39.7754 -0.261084 29.4496 7.89937 27.1332 19.0856Z" fill="#FF5733"/>
</svg>
